<svg id="Calque_1" data-name="Calque 1" xmlns="http://www.w3.org/2000/svg" viewBox="0 0 225 167.81"><title>email</title><path d="M5.28,7.49H212.33V163.35H5.28ZM28.87,21.33c.36.39.59.66.84.91L103,95.55c3.55,3.55,8,3.54,11.56,0l73.32-73.32c.25-.24.47-.51.8-.88ZM188.39,149.54,134.27,95.41c-3,3-6.08,6.16-9.25,9.2a33.24,33.24,0,0,1-4.83,3.94c-9,5.8-18.9,4.19-26.47-2.81-3.46-3.21-6.7-6.65-10-10a3.17,3.17,0,0,0-.37-.31l-54.08,54.1ZM19,139.28,72.82,85.53C54.9,67.62,36.89,49.6,19,31.75ZM144.55,85.35l54,54V31.37Z"/></svg>