<svg id="Calque_1" data-name="Calque 1" xmlns="http://www.w3.org/2000/svg" viewBox="0 0 242.2 240.8"><title>insta</title><path d="M1,171.8V71.8a56,56,0,0,0,1-5.69C4.45,32.83,23.52,10.86,56,4.17c5-1,10-1.59,15-2.37H171a56,56,0,0,0,5.69,1c33.25,2.46,55.25,21.56,61.94,54,1,5,1.59,10,2.37,15v100a54.75,54.75,0,0,0-1,5.65c-2.43,33.28-21.52,55.28-54,62-5,1-10,1.59-15,2.37H71a56,56,0,0,0-5.69-1c-33.27-2.46-55.25-21.54-61.94-54C2.35,181.87,1.78,176.82,1,171.8Zm217.12-50.19h.7c0-15,.05-30,0-45,0-3.15-.48-6.3-.75-9.46-2.19-25.4-17.19-41.42-42.67-42.14Q121,23.51,66.5,25c-25.38.72-41.56,16.89-42.27,42.28q-1.53,54.41,0,108.87c.72,25.65,16.92,41.71,42.66,42.45q53.64,1.53,107.37.06c26.83-.77,42.19-16.49,43.67-43.15C218.92,157.61,218.12,139.59,218.12,121.61Z"/><path d="M120.89,183.64a61.84,61.84,0,1,1,62-61.49A62,62,0,0,1,120.89,183.64Zm-39.74-62a39.94,39.94,0,0,0,39.46,40c22,.1,40.06-17.5,40.22-39.19a39.84,39.84,0,1,0-79.68-.78Z"/><path d="M185.2,72c-8.47,0-14.68-6-14.67-14.19a14.48,14.48,0,1,1,29,.19C199.41,66.1,193.46,71.93,185.2,72Z"/></svg>