<svg id="Calque_1" data-name="Calque 1" xmlns="http://www.w3.org/2000/svg" viewBox="0 0 200 130"><title>Plan de travail 1</title><path d="M26.73,1.37c10.68,4.53,18.19,12.44,24.09,22a22.29,22.29,0,0,1,1.74,3.89c1.48,3.91.79,7.29-2.78,9.8-3,2.15-6.09,4.31-9.23,6.32C34,47.59,32.36,52,35.77,58.81A43.31,43.31,0,0,0,43.66,69.9c7.26,7.29,14.88,14.25,22.62,21,2,1.81,5,2.86,7.66,3.72,5,1.61,8.55.37,11.6-3.8,2.31-3.14,4.3-6.52,6.67-9.61,4.06-5.33,7.1-6.2,13.17-3.15,10.84,5.45,19.18,13.44,24.2,24.53v2.28c-2,2.85-3.66,6.07-6.13,8.47-4.16,4.05-8.82,7.59-13.3,11.3-2,1.62-4,3.13-6,4.69h-4c-1.29-.29-2.58-.57-3.86-.88a138.22,138.22,0,0,1-59.7-31.32C23.38,85.54,14.6,70.62,7.69,54.78,4.27,47,2.24,38.53-.42,30.38v-4c3-3.76,5.92-7.59,9-11.26,4.55-5.37,9-10.89,15.8-13.77Z"/></svg>